<svg width="70" height="64" fill="none" xmlns="http://www.w3.org/2000/svg"><path d="M.07 1.323c-.127.818 5.061 2.07 13.091 4.568a103.417 103.417 0 0 1 13.61 5.292 62.27 62.27 0 0 1 14.582 9.642 47.517 47.517 0 0 1 10.513 13.69 78.428 78.428 0 0 1 5.493 13.411c1.006 3.329 1.685 6.18 2.2 8.38a99.374 99.374 0 0 0-2.077-1.587c-1.745-1.292-3.366-2.397-4.78-3.262-2.83-1.73-4.83-2.504-5.333-1.911-.502.593.59 2.44 2.76 4.946 1.086 1.253 2.442 2.672 4.002 4.18.78.755 1.612 1.533 2.487 2.323l1.345 1.195.694.603c.148.122.149.14.486.404.24.182.5.334.777.454a3.28 3.28 0 0 0 2.98-.185c.287-.169.548-.376.778-.617.137-.142.264-.293.38-.451l.18-.252c.219-.315.418-.63.602-.944.342-.59.653-1.2.931-1.823.524-1.175.91-2.195 1.303-3.219.769-2.03 1.39-3.891 1.838-5.488.895-3.192 1.096-5.328.39-5.65-.708-.322-2.188 1.23-4.01 4.001-.91 1.386-1.907 3.076-2.934 4.988l-.317.608a51.522 51.522 0 0 0-.816-7.628 61.614 61.614 0 0 0-4.712-14.772 47.067 47.067 0 0 0-11.39-15.568A57.969 57.969 0 0 0 28.905 6.46a74.027 74.027 0 0 0-14.77-4.425C5.55.452.173.61.07 1.323Z" fill="#468E0D"/></svg>