<svg width="71" height="37" fill="none" xmlns="http://www.w3.org/2000/svg"><path d="m54.589 28.517-.004.003c-2.993 1.94-5.764 3.577-8.237 4.867-1.384.723-2.906 1.456-4.329 2.009-1.415.55-2.76.933-3.778.933-.664 0-1.253-.164-1.6-.626-.352-.469-.342-1.09-.15-1.738.194-.655.59-1.397 1.1-2.17 1.022-1.549 2.54-3.278 3.972-4.776a87.16 87.16 0 0 1 3.648-3.58c-4.338.385-9.196.587-14.154.587-7.294 0-14.821-.454-20.53-1.33-2.853-.438-5.265-.983-6.969-1.636-.851-.325-1.541-.684-2.023-1.08-.48-.395-.785-.855-.785-1.38 0-.527.304-.987.785-1.382.482-.396 1.172-.754 2.023-1.08 1.704-.653 4.116-1.198 6.968-1.636 5.71-.877 13.237-1.33 20.53-1.33 5.218 0 10.28.22 14.77.641a92.595 92.595 0 0 1-5.034-4.067c-1.558-1.365-3.224-2.953-4.38-4.405-.576-.725-1.035-1.429-1.287-2.063-.25-.63-.314-1.247-.005-1.744.309-.497.89-.713 1.566-.768.68-.057 1.515.043 2.42.238 1.814.392 3.976 1.181 5.89 1.974 2.569 1.063 5.473 2.449 8.637 4.12h.003l2.413 1.304.006.004 3.47 2.012.002.001A706.478 706.478 0 0 1 69.8 16.681l.333.207.31.193-.292.22-.313.235a661.664 661.664 0 0 1-9.67 7.149h-.001l-1.451 1.043-.006.004-4.12 2.785Zm-8.72 3.95c2.44-1.274 5.182-2.894 8.149-4.817l2.277-1.505 3.263-2.3.001-.002a671.25 671.25 0 0 0 9.048-6.68 720.94 720.94 0 0 0-9.61-5.852l-2.22-1.313-3.631-1.985h-.002c-3.136-1.656-6.01-3.027-8.546-4.075-3.682-1.525-5.824-2.043-7.06-2.142-1.24-.1-1.499.224-1.538.286-.037.06-.212.435.428 1.502.637 1.065 2.05 2.755 5.049 5.38 1.787 1.566 3.965 3.295 6.472 5.138l.808.594.752.553-.928-.103-.997-.11c-4.89-.54-10.605-.827-16.528-.827-8.818 0-16.183.6-21.338 1.476-2.58.44-4.595.946-5.96 1.477-.684.266-1.19.533-1.522.792-.338.263-.448.481-.448.645 0 .164.11.382.448.646.331.258.838.525 1.522.791 1.365.531 3.38 1.038 5.96 1.476 5.155.877 12.52 1.476 21.338 1.476 5.524 0 10.916-.252 15.592-.729l.815-.083.756-.077-.563.51-.606.551a93.245 93.245 0 0 0-4.737 4.577c-2.752 2.88-4.01 4.689-4.55 5.806-.544 1.124-.334 1.48-.292 1.535.04.055.324.357 1.554.147 1.223-.208 3.31-.913 6.844-2.758Z" fill="#333B41" stroke="#333B41" stroke-width=".5"/></svg>