<svg width="33" height="37" fill="none" xmlns="http://www.w3.org/2000/svg"><path fill-rule="evenodd" clip-rule="evenodd" d="M24.398 31.625c-.46-1.644-1.834-3.575-2.904-5.66l2.904 5.66Zm2.584-.188c-1.527-2.23-2.446-4.767-3.365-7.305-.762-.74-1.37-.43-1.977-.121-1.062.916-2.125 1.082-.907 1.964 1.527 2.23 2.597 4.315 3.363 6.555l1.215-.619c.607-.309.758-.761 1.67-.474Zm-6.558-7.558c-.461-1.645-1.835-3.575-2.905-5.66l2.905 5.66Zm-4.128-8.044c-.307-1.347-1.834-3.576-2.751-5.363l2.904 5.66-.153-.297Zm2.585-.188c-1.374-1.931-2.293-4.47-3.366-7.305-.609-.441-1.216-.132-1.823.177-1.062.916-2.126 1.081-.907 1.964a26.676 26.676 0 0 1 3.363 6.555l1.214-.619c.455-.607.758-.761 1.519-.772Zm-6.559-7.558c-.308-1.347-1.834-3.576-2.751-5.363l2.904 5.66-.153-.297Zm2.584-.188C13.533 5.97 12.613 3.43 11.541.596c-.61-.441-1.216-.132-1.824.177-1.061.916-2.278.783-.907 1.964a26.674 26.674 0 0 1 3.363 6.554c.304-.154.911-.463 1.062-.916.607-.309.911-.463 1.671-.474Zm-.584 8.563c-1.217-.132-2.13-.42-3.347-.551 1.217.132 1.977.12 3.347.55-1.826-.573-3.196-1.003-4.87-1.279 1.37.43 2.587.563 4.413 1.136-1.979-.871-3.652-1.147-5.174-1.875 1.37.43 2.739.86 4.718 1.732-1.676-1.026-3.502-1.6-5.328-2.173 1.826.574 3.805 1.445 6.24 2.46.457.143.457.143 0 0Zm-.608.309s-.303.154-.456-.143c-2.28.033-4.257-.088-6.081.089 1.673.275 3.497.099 5.32-.078-1.823.177-3.344.199-4.711.519 1.52-.022 3.344-.2 5.168-.376-1.52.022-2.888.343-4.255.663 1.824-.177 3.191-.497 4.712-.52l-3.192.497c1.064-.165 2.128-.33 3.192-.497l.303-.154Zm.918 1.788c-.608.309-1.062.916-1.973 1.38.607-.31 1.061-.917 1.973-1.38-.912.463-1.973 1.38-2.884 1.843.91-.464 1.669-1.225 2.58-1.689-1.215.618-2.43 1.236-3.491 2.152.758-.761 1.973-1.38 3.187-1.997l-3.644 1.854c1.215-.618 2.58-1.689 4.099-2.461.303-.155.456.143.153.298Zm.152.297-.303.155c-1.213 1.368-2.122 2.582-2.727 3.642.605-1.06 1.514-2.274 2.272-3.035-.605 1.06-1.363 1.821-1.968 2.88.605-1.059 1.514-2.273 2.119-3.332-.605 1.059-.907 1.964-1.361 2.57.454-.606 1.06-1.665 1.665-2.725-.302.905-.756 1.512-.907 1.964.454-.607.452-1.357.907-1.964l.303-.155Zm.758-.761.608-.31c.153.299.153.299.61.442 1.526 2.23 2.596 4.315 3.362 6.555.304-.155.91-.464 1.215-.618.454-.608.758-.762 1.518-.773-1.374-1.931-2.293-4.47-3.365-7.305-.61-.441-1.217-.132-1.824.177-.758.761-1.518.773-1.67 1.225-.152-.298-.609-.441-.761-.74-.153-.297-.61-.44-1.372-1.18-1.979-.871-5.174-1.875-6.848-2.15.459.893 2.894 1.908 4.873 2.78-1.977-.122-4.56.066-6.079.839 1.523.728 7.147.495 8.818.02 0 0 .304-.154.457.144.456.144.913.287 1.066.585-.304.154-.608.309-1.064.166l-.911.463c-1.671.475-3.644 1.855-4.706 2.77.914.287 2.735-.64 4.1-1.71a43.486 43.486 0 0 0-2.573 3.94c1.367-.32 3.79-3.808 3.94-5.011l.606-.309Z" fill="#55B807"/><path d="m28.174 10.24.004-.015v-.014l-.096-6.058v-.01l-.002-.01c-.049-.222.058-.437.294-.61.236-.175.588-.295.98-.318.775-.046 1.678.29 2.119 1.293-.189.876-.296 1.74-.402 2.6v.001c-.109.872-.216 1.738-.406 2.615l-.01.042.025.036c2.461 3.585 2.731 7.493 1.519 11.026-1.214 3.535-3.914 6.697-7.396 8.776-3.48 2.08-7.737 3.073-12.06 2.28-4.318-.793-8.711-3.369-12.47-8.444-.14-.582-.195-1.068-.165-1.455.03-.392.147-.673.344-.855.197-.183.49-.282.9-.277.411.005.932.114 1.573.338 10.492 4.357 22.114.29 25.25-10.942Z" fill="#FFEB00" stroke="#55B807" stroke-width=".2"/></svg>