<svg width="10" height="20" fill="none" xmlns="http://www.w3.org/2000/svg"><path d="M8.078 6.26a5.731 5.731 0 0 0-1.22-.883 3.1 3.1 0 0 0-1.326-.286c-.571 0-.987.13-1.272.364-.286.233-.442.623-.442 1.142 0 .364.156.702.468.935.311.26.675.494 1.143.728.467.234.96.467 1.48.727.52.26 1.013.545 1.48.91.468.363.832.778 1.143 1.298.312.52.468 1.143.468 1.87 0 1.117-.312 2.078-.91 2.883-.596.805-1.532 1.325-2.726 1.61V20h-2.26v-2.338a8.07 8.07 0 0 1-2.156-.571C1.195 16.779.545 16.39 0 15.896l1.506-2.312c.598.442 1.17.78 1.689 1.013.545.234 1.09.338 1.636.338.65 0 1.143-.13 1.429-.39.311-.26.467-.675.467-1.22 0-.416-.156-.754-.467-1.04a5.872 5.872 0 0 0-1.143-.805 39.24 39.24 0 0 0-1.48-.779 8.86 8.86 0 0 1-1.481-.935 4.849 4.849 0 0 1-1.143-1.272C.701 8 .545 7.429.545 6.727c0-1.143.312-2.104.936-2.857.623-.753 1.506-1.247 2.597-1.454V0h2.26v2.364a5.228 5.228 0 0 1 1.974.675 7.012 7.012 0 0 1 1.532 1.247L8.078 6.26Z" fill="#929699"/></svg>