<svg width="16" height="16" fill="none" xmlns="http://www.w3.org/2000/svg"><path fill-rule="evenodd" clip-rule="evenodd" d="M4.702.048C3.85.087 3.269.222 2.76.42a3.918 3.918 0 0 0-1.417.923A3.9 3.9 0 0 0 .42 2.76C.222 3.269.087 3.85.048 4.702.01 5.555 0 5.827 0 8s.01 2.445.048 3.298c.039.852.174 1.433.372 1.942.204.526.478.973.923 1.417.445.445.89.718 1.417.923.509.198 1.09.333 1.942.372C5.555 15.99 5.827 16 8 16s2.445-.01 3.299-.048c.851-.039 1.433-.174 1.942-.372a3.925 3.925 0 0 0 1.417-.923 3.91 3.91 0 0 0 .922-1.417c.198-.509.333-1.09.372-1.942.039-.853.048-1.125.048-3.298s-.009-2.445-.048-3.298c-.039-.852-.174-1.433-.372-1.942a3.923 3.923 0 0 0-.922-1.417A3.923 3.923 0 0 0 13.24.42c-.51-.198-1.09-.333-1.941-.372C10.445.01 10.173 0 8 0S5.555.01 4.702.048Zm.065 14.464c-.78-.036-1.203-.166-1.485-.276a2.482 2.482 0 0 1-.92-.598 2.479 2.479 0 0 1-.598-.92c-.11-.282-.24-.705-.276-1.485-.038-.844-.047-1.097-.047-3.233s.009-2.39.047-3.233c.036-.78.166-1.203.276-1.485a2.48 2.48 0 0 1 .598-.92c.28-.28.546-.454.92-.598.282-.11.705-.24 1.485-.276.844-.038 1.097-.047 3.233-.047s2.39.009 3.233.047c.78.036 1.203.166 1.485.276.374.144.64.318.92.598.28.28.453.546.599.92.11.282.24.705.275 1.485.039.844.046 1.097.046 3.233s-.007 2.389-.046 3.233c-.036.78-.166 1.203-.275 1.485-.146.373-.319.64-.599.92-.28.28-.546.453-.92.598-.282.11-.705.24-1.485.276-.844.038-1.097.046-3.233.046s-2.389-.008-3.233-.046ZM11.31 3.729a.96.96 0 1 0 1.92 0 .96.96 0 0 0-1.92 0ZM3.892 8a4.108 4.108 0 1 0 8.216 0 4.108 4.108 0 0 0-8.216 0Zm1.442 0a2.667 2.667 0 1 1 5.333 0 2.667 2.667 0 0 1-5.333 0Z" fill="#fff"/></svg>