<svg width="48" height="38" fill="none" xmlns="http://www.w3.org/2000/svg"><path fill-rule="evenodd" clip-rule="evenodd" d="M12.102 8.988a28.216 28.216 0 0 0-.92.849c-1.795 1.729-3.394 3.707-4.543 5.92-1.15 2.215-1.834 4.664-1.77 7.071.028 1.086.213 2.239.85 3.206.11.167.233.327.368.477l2.278 2.556.022.025c.262.293.574.549.937.746a3.33 3.33 0 0 0 1.875.394c.593-.05 1.151-.252 1.646-.52a7.54 7.54 0 0 0 1.308-.925c.772-.66 1.398-1.327 2.063-1.759 1.187-.772 2.726-.994 4.276-1.03 1.56-.037 3.234.086 4.99-.328 2.139-.503 4.121-1.787 5.529-3.517 1.405-1.728 2.208-3.852 2.307-5.94.102-2.193-.573-4.315-1.895-5.937a7.636 7.636 0 0 0-.235-.274l-2.3-2.58c-1.312-1.48-3.159-2.467-5.208-2.77-2.261-.336-4.65.162-6.795 1.148-1.755.807-3.346 1.926-4.781 3.188h-.002Zm1 1.051c.1-.09.204-.177.307-.264 1.24-1.048 2.576-1.953 4.002-2.609 1.897-.872 3.98-1.29 5.878-1.01 1.81.27 3.463 1.193 4.57 2.55 1.107 1.358 1.683 3.167 1.597 5.006-.082 1.748-.766 3.546-1.928 4.974-1.16 1.427-2.822 2.499-4.561 2.908-1.442.34-3.002.245-4.658.284-1.664.04-3.527.249-5.16 1.31-.915.595-1.589 1.333-2.252 1.9a5.87 5.87 0 0 1-.995.71c-.33.18-.67.294-.981.32a1.898 1.898 0 0 1-1.052-.228 2.348 2.348 0 0 1-.823-.777c-.434-.66-.604-1.55-.63-2.49-.055-2.102.547-4.294 1.587-6.297 1.041-2.005 2.514-3.838 4.2-5.46.293-.283.593-.56.899-.827Zm.913 1.036a21.66 21.66 0 0 0-.838.771c-1.581 1.523-2.934 3.216-3.873 5.024-.934 1.8-1.459 3.747-1.41 5.558.02.803.177 1.44.419 1.806.117.179.26.305.375.367a.567.567 0 0 0 .267.07c.04-.003.174-.034.347-.127.18-.098.418-.267.697-.505.56-.48 1.278-1.286 2.432-2.036 2.057-1.337 4.23-1.534 6.003-1.576 1.747-.042 3.198.025 4.34-.243 1.36-.32 2.715-1.19 3.64-2.326.93-1.143 1.5-2.63 1.566-4.056.07-1.5-.41-3.01-1.312-4.116-.902-1.105-2.28-1.875-3.752-2.093-1.551-.23-3.342.113-5.003.877-1.256.578-2.466 1.39-3.613 2.36-.095.08-.19.163-.285.245Zm6.768 1.944c.546-.482 1.197-.8 1.811-.886.615-.084 1.14.072 1.464.434.322.362.415.9.257 1.498-.158.597-.553 1.203-1.099 1.685-.27.24-.57.44-.88.592a3.11 3.11 0 0 1-.931.294 1.99 1.99 0 0 1-.841-.05 1.325 1.325 0 0 1-.623-.383 1.315 1.315 0 0 1-.308-.662 1.977 1.977 0 0 1 .05-.837 3.08 3.08 0 0 1 .405-.886c.188-.289.425-.56.695-.8Z" fill="#D64F4D"/><path d="M43.06 12.664c-2.434 2.13-2.727 6.238-2.727 6.238-23.02-4.724-27.644 12.605-27.644 12.605s15.198 9.617 28.903-9.397c0 0 3.012 2.822 6.252 2.744 0 0-2.819-2.157-4.103-5.43-1.283-3.271-.68-6.76-.68-6.76ZM18.478 29.047c-.54.21-1.165-.102-1.398-.695-.233-.594.015-1.246.555-1.456.54-.21 1.165.102 1.398.695.233.594-.015 1.246-.555 1.456Zm5.2 2.658a.35.35 0 0 1-.454.278.441.441 0 0 1-.29-.505c.804-3.89-2.113-5.682-2.236-5.756a.443.443 0 0 1-.176-.557.351.351 0 0 1 .508-.152c.036.022 3.582 2.173 2.648 6.692Z" fill="#7A7871"/></svg>