<svg width="108" height="60" fill="none" xmlns="http://www.w3.org/2000/svg"><path d="M46.973 25.033a1.18 1.18 0 0 1-.16-.061c-15.27-5.736-22.378 4.967-22.4 4.998-.15.219-.37.392-.642.48l-18.13 5.855a4.57 4.57 0 0 0-2.412 1.807 4.587 4.587 0 0 0-.742 2.927l1.175 14.759c.027.331.126.629.288.878.164.25.396.462.688.62.295.158.6.237.897.235.292-.002.595-.085.892-.25v.002L24.72 47.13c.193-.11.417-.17.655-.162.045.002 15.84.612 21.734 1.72 5.23.982 7.45-.943 7.456-.948l.001.002a1.24 1.24 0 0 1 .202-.137l17.68-9.63h-24.57v-.003c-.108 0-.218-.014-.328-.045a2.789 2.789 0 0 1-1.861-1.649 3.079 3.079 0 0 1-.226-1.382c.032-.477.18-.949.439-1.356.381-.6.983-1.045 1.796-1.169l15.882-4.964c.867-.27 1.408-1.01 1.572-1.819a2.61 2.61 0 0 0-.01-1.1 2.047 2.047 0 0 0-.45-.896c-.52-.592-1.493-.924-3.003-.654l-13.452 2.4v-.003c-.219.039-.45.019-.671-.07-.2-.08-.397-.157-.593-.232Zm-.873-2.922V5.864c0-1.614.658-3.08 1.718-4.142A5.825 5.825 0 0 1 51.951 0h50.198c1.611 0 3.073.66 4.133 1.722A5.853 5.853 0 0 1 108 5.864v26.248c0 1.614-.658 3.08-1.718 4.142a5.826 5.826 0 0 1-4.133 1.722h-24.54L56.046 49.718c-.58.438-3.66 2.477-9.392 1.4-5.239-.985-18.727-1.573-21.028-1.667L7.614 59.448l.001.002a4.306 4.306 0 0 1-2.07.55 4.3 4.3 0 0 1-2.075-.526 4.315 4.315 0 0 1-1.588-1.443 4.336 4.336 0 0 1-.684-2.04L.023 41.234a7.053 7.053 0 0 1 1.158-4.496 7.027 7.027 0 0 1 3.706-2.785l17.747-5.732c1.456-1.906 9.116-10.695 23.466-6.109Zm31.193 13.386h24.856c.927 0 1.772-.382 2.385-.996a3.38 3.38 0 0 0 .993-2.39V13.108H48.574v9.654l12.69-2.264c2.488-.444 4.235.264 5.282 1.459a4.529 4.529 0 0 1 1.001 1.98c.072.309.112.626.122.946h3.683a.62.62 0 0 1 0 1.24h-3.795a5.017 5.017 0 0 1-1.285 2.446.62.62 0 0 1-.48 1.01h-.968a4.706 4.706 0 0 1-.51.192l-15.975 4.993a1.254 1.254 0 0 1-.276.053c-.042.009-.07.027-.084.05a.42.42 0 0 0-.053.194.6.6 0 0 0 .043.27.374.374 0 0 0 .133.167h29.191Zm15.705-12.04c.915 0 1.777.23 2.53.637a5.362 5.362 0 0 1 2.526-.637c1.474 0 2.81.6 3.777 1.568a5.346 5.346 0 0 1 1.565 3.785 5.348 5.348 0 0 1-1.565 3.786 5.32 5.32 0 0 1-5.338 1.333 5.391 5.391 0 0 1-.965-.401 5.306 5.306 0 0 1-2.53.637 5.32 5.32 0 0 1-3.777-1.569 5.343 5.343 0 0 1-1.565-3.785c0-1.479.598-2.817 1.565-3.786a5.317 5.317 0 0 1 3.777-1.568Zm3.998 1.803a5.343 5.343 0 0 1 1.345 3.55 5.343 5.343 0 0 1-1.345 3.552c.329.097.683.15 1.058.15a3.696 3.696 0 0 0 3.693-3.701 3.694 3.694 0 0 0-1.082-2.618 3.676 3.676 0 0 0-2.611-1.084c-.375 0-.73.053-1.058.15Zm-1.386.933a3.678 3.678 0 0 0-2.612-1.084c-1.02 0-1.943.415-2.611 1.084a3.694 3.694 0 0 0-1.082 2.618 3.694 3.694 0 1 0 7.386 0 3.693 3.693 0 0 0-1.081-2.618Zm-27.006 3.385a.62.62 0 0 1 0-1.24h2.11a.619.619 0 0 1 0 1.24h-2.11Zm23.99-10.532a.62.62 0 0 1 0-1.24h7.959a.619.619 0 0 1 0 1.24h-7.959Zm-18.186 0a.62.62 0 0 1 0-1.24H85.9a.62.62 0 0 1 0 1.24H74.408Zm-23.43 0a.62.62 0 0 1 0-1.24h16.778a.619.619 0 0 1 0 1.24H50.98Zm54.549-7.592V6.69H48.574v4.764h56.953Zm-.103-6.416a3.397 3.397 0 0 0-.89-1.564 3.366 3.366 0 0 0-2.385-.995H51.951c-.927 0-1.772.381-2.384.995a3.4 3.4 0 0 0-.89 1.564h56.747Z" fill="#333B41"/></svg>