<svg width="37" height="37" fill="none" xmlns="http://www.w3.org/2000/svg"><g clip-path="url(#a)"><path d="M37 18.5C37 8.304 28.696 0 18.5 0S0 8.304 0 18.5c0 6.126 3.001 11.593 7.647 14.964.082.083.164.124.246.165A18.198 18.198 0 0 0 18.5 37c3.947 0 7.606-1.233 10.607-3.371.082-.041.164-.123.246-.165C34 30.094 37 24.626 37 18.5ZM9.044 32.437v-.781c0-5.222 4.235-9.456 9.456-9.456 5.221 0 9.456 4.234 9.456 9.456v.78a16.708 16.708 0 0 1-9.456 2.92 16.708 16.708 0 0 1-9.456-2.92Zm4.523-16.815A4.948 4.948 0 0 1 18.5 10.69a4.948 4.948 0 0 1 4.933 4.933 4.948 4.948 0 0 1-4.933 4.934 4.948 4.948 0 0 1-4.933-4.934ZM29.6 31.162a11.102 11.102 0 0 0-7.523-10.03 6.532 6.532 0 0 0 3-5.51c0-3.618-2.96-6.578-6.577-6.578-3.618 0-6.578 2.96-6.578 6.578a6.532 6.532 0 0 0 3.001 5.51C10.69 22.57 7.606 26.516 7.4 31.161A16.733 16.733 0 0 1 1.644 18.5C1.644 9.209 9.21 1.644 18.5 1.644S35.356 9.21 35.356 18.5A16.73 16.73 0 0 1 29.6 31.162Z" fill="#767474"/></g><defs><clipPath id="a"><path fill="#fff" d="M0 0h37v37H0z"/></clipPath></defs></svg>