<svg width="40" height="40" fill="none" xmlns="http://www.w3.org/2000/svg"><path fill-rule="evenodd" clip-rule="evenodd" d="M31.477 20A11.47 11.47 0 0 1 20 31.477 11.47 11.47 0 0 1 8.523 20 11.47 11.47 0 0 1 20 8.523 11.47 11.47 0 0 1 31.477 20ZM20 10.315c5.376 0 9.734 4.31 9.734 9.685 0 5.375-4.358 9.734-9.734 9.734-5.375 0-9.685-4.359-9.685-9.734A9.652 9.652 0 0 1 20 10.315Z" fill="#FE9013"/><path fill-rule="evenodd" clip-rule="evenodd" d="M20 0c11.041 0 20 8.959 20 20s-8.959 20-20 20S0 31.041 0 20 8.959 0 20 0Zm0 1.792c10.073 0 18.257 8.135 18.257 18.208 0 10.073-8.184 18.257-18.257 18.257C9.927 38.257 1.792 30.073 1.792 20 1.792 9.927 9.927 1.792 20 1.792Z" fill="#FE9013"/></svg>