<svg width="18" height="13" fill="none" xmlns="http://www.w3.org/2000/svg"><path fill-rule="evenodd" clip-rule="evenodd" d="M12.006 5.773 7.494 3.517s-1.254-.57-1.254.502V9.03s.024.764 1.254.25c.856-.357 4.512-2.255 4.512-2.255s.933-.598 0-1.253Zm5.515 5.012c-.559 1.59-1.754 1.795-2.757 2.005-1.479.31-10.992.271-12.535-.25-.962-.326-1.554-.466-2.005-2.757-.289-1.466-.308-5.78 0-7.268C.522 1.075 1.27.398 2.73.259c3.92-.371 10.474-.319 12.534 0 1.91.296 2.309 1.435 2.507 2.506.32 1.735.358 6.287-.25 8.02Z" fill="#fff"/></svg>