<svg width="87" height="96" fill="none" xmlns="http://www.w3.org/2000/svg"><path d="M39.749 5.264a4.818 4.818 0 0 0-1.027-.743 2.607 2.607 0 0 0-1.114-.24c-.48 0-.83.11-1.07.306-.24.196-.371.524-.371.96 0 .307.13.59.393.787.262.219.568.415.96.612.394.196.809.393 1.246.611.437.219.852.46 1.245.765.393.306.699.655.96 1.092.263.437.394.961.394 1.573 0 .939-.262 1.747-.764 2.424-.503.677-1.29 1.114-2.294 1.354v2.053h-1.9v-1.965a6.786 6.786 0 0 1-1.813-.48c-.633-.263-1.18-.59-1.638-1.006l1.267-1.944a7.77 7.77 0 0 0 1.42.852c.458.197.917.284 1.376.284.546 0 .96-.109 1.2-.327.263-.219.394-.568.394-1.027 0-.35-.131-.633-.393-.874a4.933 4.933 0 0 0-.961-.677A32.334 32.334 0 0 0 36.014 9a7.458 7.458 0 0 1-1.245-.786 4.078 4.078 0 0 1-.961-1.07c-.263-.416-.394-.896-.394-1.486 0-.96.263-1.77.787-2.403s1.267-1.048 2.184-1.223V0h1.9v1.988c.634.087 1.18.284 1.66.568.48.283.896.633 1.289 1.048l-1.485 1.66Z" fill="#333B41"/><path fill-rule="evenodd" clip-rule="evenodd" d="m86.775 76-3.594-2.21-8.017 14.374 3.87 1.935 7.74-14.098Z" fill="#333B41"/><path clip-rule="evenodd" d="M81.246 73.236c-9.4-10.782-17.692-8.017-28.75-.83-9.675 6.358-16.863 1.935-24.05 4.976-1.66.83-4.147 2.764-1.936 4.7 1.106.829 5.53 1.658 6.912 1.382 7.463-1.659 9.675 1.659 21.009-.553-3.317 2.488-14.098.83-20.733 1.659-5.253 1.105-13.822-3.041-6.911-7.74-3.041-1.383-5.805-2.212-9.123-2.489-3.317-2.488-8.57-5.529-11.334-6.634-2.211-1.382-7.74-.83-4.146 2.764 3.593 3.317 13.269 10.781 15.204 11.887 7.74 4.7 14.928 8.017 22.392 12.163 0 0 2.488 1.383 7.463-.552 3.594-1.66 19.628-10.505 23.498-9.123 2.212.83 3.317 1.382 3.317 1.382l7.188-12.992Z" stroke="#333B41" stroke-width="1.5"/><path fill-rule="evenodd" clip-rule="evenodd" d="M34.528 72.406c.553-1.106 1.106-1.935 1.935-2.212.83-.276 1.106.277 1.659.83.552.83.829 1.106 1.658 1.659.277.276.83.276 1.106.276l-.553-.276c-.83-.553-1.382-1.106-1.106-2.212 0-.276-.276-.83.277-.83.553.277 1.382.83 2.211.83 0 0 .83.276.553 0 0-.276-.553-.553-.83-.83-1.658-1.382-1.658-1.658-1.658-3.593.277-2.765-.83-4.976-2.764-6.911-4.423-4.423-2.488-10.505.83-16.31 3.04-5.252 5.804-6.082 2.764-12.44-1.106-2.764-3.041-5.529-3.318-7.187 0-.553 0-.277 0 0-.276 1.658.83 4.146 1.935 6.634 2.488 5.529 1.935 6.082-1.658 11.058-3.87 4.976-6.635 10.228-4.976 15.757 1.105 3.87 6.634 7.74 3.87 10.228-1.382 1.106-3.317 3.87-3.594 5.529-.276.83-.276.83-.553 1.382-.276.277 0 .277.277.277 1.382-.277 1.382-.83 1.935-1.659Z" fill="#333B41"/><path d="m52.843 46.529.912-.26.043.947c.148 3.252-1.245 7.15-3.534 10.227-1.187 1.595-2.649 3.012-4.31 4.006 1.094-.375 2.297-1.065 3.514-2.28 3.235-3.49 4.126-7.927 5.163-13.615-.966.086-1.917.302-2.894.585a53.99 53.99 0 0 0-1.951.618l-.121.04c-.618.205-1.254.416-1.907.612-5.129 1.893-7.904 4.25-8.913 6.956-.25 1.289-.215 2.454.223 3.331l.037.074.02.08c.173.693.875 1.335 1.816 1.852 1.051-.989 1.784-1.872 2.505-2.79a49.8 49.8 0 0 0-.494.516l-.361.378a9.202 9.202 0 0 1-.562.544c-.157.136-.377.308-.63.393l-.189.063-.195-.04c-.895-.178-1.567-.672-1.843-1.5-.247-.74-.124-1.611.164-2.486.494-1.933 2.01-3.444 4.253-4.726 2.258-1.29 5.37-2.415 9.254-3.525ZM26.134 28.364c-1.476-.515-2.762-.963-4.2-1.226l.145.715c.13.643.257 1.267.386 1.872a9.936 9.936 0 0 1-.02-1.313l.05-.945.908.265c3.333.972 6.026 1.958 8.003 3.073 1.764.994 3.051 2.142 3.657 3.562-.84-2.261-3.05-4.198-7.382-5.472l-.013-.004-.012-.004c-.536-.179-1.039-.354-1.522-.523Zm-.675 8.967a16.103 16.103 0 0 1-1.531-2.522c.606 1.444 1.405 2.738 2.56 3.894l.01.01.01.01c.636.685 1.275 1.177 1.892 1.524-1.12-.79-2.112-1.801-2.94-2.916Zm9.78.184c.434-.869.447-1.702.037-2.57.283.787.295 1.568.01 2.234-.306.714-.919 1.208-1.682 1.4l-.212.052-.208-.069a1.456 1.456 0 0 1-.241-.107c.174.198.357.4.553.608l.02-.005c.96-.24 1.483-.655 1.666-1.39l.02-.079.037-.074Zm15.318-8.842a12.6 12.6 0 0 1-1.042 1.104c.167-.14.334-.293.502-.46.191-.21.37-.425.54-.644Zm3.208-9.21.008-.044c-1.531.298-3.108.776-4.884 1.442l-.011.004c-3.478 1.242-5.388 2.643-6.24 4.517.58-1.19 1.623-2.161 3.091-3.005 1.709-.982 4.063-1.83 7.122-2.665l.914-.25Zm-10.076 9.7a2.109 2.109 0 0 1-.774-.45c.188.344.448.628.81.808.106-.11.207-.218.305-.323a1.148 1.148 0 0 1-.104.004h-.122l-.115-.038Z" stroke="#333B41" stroke-width="1.5"/></svg>